REM DIRINDEX 1\2\6,1\2\7,1\2\8,1\3\9,1\3\10,1\3\11,1\4\12,1\4\13,1\4\14,1\5\15,1\5\16,1\5\17,1\5\18
REM DIRNAME folder01,folder02,folder03,folder04,folder05,folder06,folder07,folder08,folder09,folder10,folder11,folder12,folder13,folder14,folder15,folder16,folder17,folder18
TITLE ""
FILE "" MP3
  TRACK 01 AUDIO
    TITLE "16:cjc019_7707"
    INDEX 01 00:00:00
  TRACK 02 AUDIO
    TITLE "0:"
    INDEX 01 00:00:68
  TRACK 03 AUDIO
    TITLE "18:cjc019_7708"
    INDEX 01 00:01:50
  TRACK 04 AUDIO
    TITLE "0:"
    INDEX 01 00:06:08
  TRACK 05 AUDIO
    TITLE "17:cjc019_7709"
    INDEX 01 00:06:59
  TRACK 06 AUDIO
    TITLE "0:"
    INDEX 01 00:07:66
  TRACK 07 AUDIO
    TITLE "16:cjc019_7710"
    INDEX 01 00:09:49
  TRACK 08 AUDIO
    TITLE "0:"
    INDEX 01 00:11:01
  TRACK 09 AUDIO
    TITLE "18:cjc019_7711"
    INDEX 01 00:11:54
  TRACK 10 AUDIO
    TITLE "0:"
    INDEX 01 00:13:65
  TRACK 11 AUDIO
    TITLE "17:cjc019_7712"
    INDEX 01 00:14:41
  TRACK 12 AUDIO
    TITLE "0:"
    INDEX 01 00:15:64
  TRACK 13 AUDIO
    TITLE "16:cjc019_7713"
    INDEX 01 00:17:53
  TRACK 14 AUDIO
    TITLE "0:"
    INDEX 01 00:19:05
  TRACK 15 AUDIO
    TITLE "18:cjc019_7714"
    INDEX 01 00:19:63
  TRACK 16 AUDIO
    TITLE "0:"
    INDEX 01 00:20:65
  TRACK 17 AUDIO
    TITLE "17:cjc019_7715"
    INDEX 01 00:21:45
  TRACK 18 AUDIO
    TITLE "0:"
    INDEX 01 00:22:72
  TRACK 19 AUDIO
    TITLE "16:cjc019_7716"
    INDEX 01 00:24:63
  TRACK 20 AUDIO
    TITLE "0:"
    INDEX 01 00:26:13
  TRACK 21 AUDIO
    TITLE "18:cjc019_7717"
    INDEX 01 00:26:71
  TRACK 22 AUDIO
    TITLE "0:"
    INDEX 01 00:29:29
  TRACK 23 AUDIO
    TITLE "17:cjc019_7718"
    INDEX 01 00:30:08
  TRACK 24 AUDIO
    TITLE "0:"
    INDEX 01 00:31:37
  TRACK 25 AUDIO
    TITLE "16:cjc019_7719"
    INDEX 01 00:33:22
  TRACK 26 AUDIO
    TITLE "0:"
    INDEX 01 00:34:53
  TRACK 27 AUDIO
    TITLE "18:cjc019_7720"
    INDEX 01 00:35:39
  TRACK 28 AUDIO
    TITLE "0:"
    INDEX 01 00:39:05
  TRACK 29 AUDIO
    TITLE "17:cjc019_7721"
    INDEX 01 00:39:60
  TRACK 30 AUDIO
    TITLE "0:"
    INDEX 01 00:41:22
  TRACK 31 AUDIO
    TITLE "16:cjc019_7722"
    INDEX 01 00:43:09
  TRACK 32 AUDIO
    TITLE "0:"
    INDEX 01 00:44:40
  TRACK 33 AUDIO
    TITLE "18:cjc019_7723"
    INDEX 01 00:45:24
  TRACK 34 AUDIO
    TITLE "0:"
    INDEX 01 00:46:39
  TRACK 35 AUDIO
    TITLE "17:cjc019_7724"
    INDEX 01 00:47:21
  TRACK 36 AUDIO
    TITLE "0:"
    INDEX 01 00:48:63
  TRACK 37 AUDIO
    TITLE "16:cjc019_7725"
    INDEX 01 00:50:44
  TRACK 38 AUDIO
    TITLE "0:"
    INDEX 01 00:52:02
  TRACK 39 AUDIO
    TITLE "18:cjc019_7726"
    INDEX 01 00:52:55
  TRACK 40 AUDIO
    TITLE "0:"
    INDEX 01 00:55:06
  TRACK 41 AUDIO
    TITLE "17:cjc019_7727"
    INDEX 01 00:55:61
  TRACK 42 AUDIO
    TITLE "0:"
    INDEX 01 00:57:19
  TRACK 43 AUDIO
    TITLE "16:cjc019_7728"
    INDEX 01 00:59:04
  TRACK 44 AUDIO
    TITLE "0:"
    INDEX 01 01:00:19
  TRACK 45 AUDIO
    TITLE "18:cjc019_7729"
    INDEX 01 01:01:07
  TRACK 46 AUDIO
    TITLE "0:"
    INDEX 01 01:03:26
  TRACK 47 AUDIO
    TITLE "17:cjc019_7730"
    INDEX 01 01:04:03
  TRACK 48 AUDIO
    TITLE "0:"
    INDEX 01 01:05:21
  TRACK 49 AUDIO
    TITLE "16:cjc019_7731"
    INDEX 01 01:07:04
  TRACK 50 AUDIO
    TITLE "0:"
    INDEX 01 01:08:29
  TRACK 51 AUDIO
    TITLE "18:cjc019_7732"
    INDEX 01 01:09:10
  TRACK 52 AUDIO
    TITLE "0:"
    INDEX 01 01:10:24
  TRACK 53 AUDIO
    TITLE "17:cjc019_7733"
    INDEX 01 01:11:05
  TRACK 54 AUDIO
    TITLE "0:"
    INDEX 01 01:12:36
  TRACK 55 AUDIO
    TITLE "16:cjc019_7734"
    INDEX 01 01:14:16
  TRACK 56 AUDIO
    TITLE "0:"
    INDEX 01 01:15:42
  TRACK 57 AUDIO
    TITLE "18:cjc019_7735"
    INDEX 01 01:16:20
  TRACK 58 AUDIO
    TITLE "0:"
    INDEX 01 01:18:25
  TRACK 59 AUDIO
    TITLE "17:cjc019_7736"
    INDEX 01 01:19:03
  TRACK 60 AUDIO
    TITLE "0:"
    INDEX 01 01:20:30
  TRACK 61 AUDIO
    TITLE "16:cjc019_7737"
    INDEX 01 01:22:15
  TRACK 62 AUDIO
    TITLE "0:"
    INDEX 01 01:23:32
  TRACK 63 AUDIO
    TITLE "18:cjc019_7738"
    INDEX 01 01:24:12
  TRACK 64 AUDIO
    TITLE "0:"
    INDEX 01 01:26:17
  TRACK 65 AUDIO
    TITLE "17:cjc019_7739"
    INDEX 01 01:27:03
  TRACK 66 AUDIO
    TITLE "0:"
    INDEX 01 01:28:24
  TRACK 67 AUDIO
    TITLE "16:cjc019_7740"
    INDEX 01 01:30:07
  TRACK 68 AUDIO
    TITLE "0:"
    INDEX 01 01:31:41
  TRACK 69 AUDIO
    TITLE "18:cjc019_7741"
    INDEX 01 01:32:27
  TRACK 70 AUDIO
    TITLE "0:"
    INDEX 01 01:35:31
  TRACK 71 AUDIO
    TITLE "17:cjc019_7742"
    INDEX 01 01:36:13
  TRACK 72 AUDIO
    TITLE "0:"
    INDEX 01 01:37:50
  TRACK 73 AUDIO
    TITLE "16:cjc019_7743"
    INDEX 01 01:39:35
  TRACK 74 AUDIO
    TITLE "0:"
    INDEX 01 01:40:54
  TRACK 75 AUDIO
    TITLE "18:cjc019_7744"
    INDEX 01 01:41:36
  TRACK 76 AUDIO
    TITLE "0:"
    INDEX 01 01:42:41
  TRACK 77 AUDIO
    TITLE "17:cjc019_7745"
    INDEX 01 01:43:21
  TRACK 78 AUDIO
    TITLE "0:"
    INDEX 01 01:44:42
  TRACK 79 AUDIO
    TITLE "16:cjc019_7746"
    INDEX 01 01:46:27
  TRACK 80 AUDIO
    TITLE "0:"
    INDEX 01 01:47:44
  TRACK 81 AUDIO
    TITLE "18:cjc019_7747"
    INDEX 01 01:48:28
  TRACK 82 AUDIO
    TITLE "0:"
    INDEX 01 01:50:49
  TRACK 83 AUDIO
    TITLE "17:cjc019_7748"
    INDEX 01 01:51:30
  TRACK 84 AUDIO
    TITLE "0:"
    INDEX 01 01:52:48
  TRACK 85 AUDIO
    TITLE "16:cjc019_7749"
    INDEX 01 01:54:27
  TRACK 86 AUDIO
    TITLE "0:"
    INDEX 01 01:55:38
  TRACK 87 AUDIO
    TITLE "18:cjc019_7750"
    INDEX 01 01:56:18
  TRACK 88 AUDIO
    TITLE "0:"
    INDEX 01 01:58:50
  TRACK 89 AUDIO
    TITLE "17:cjc019_7751"
    INDEX 01 01:59:30
  TRACK 90 AUDIO
    TITLE "0:"
    INDEX 01 02:00:43
  TRACK 91 AUDIO
    TITLE "16:cjc019_7752"
    INDEX 01 02:02:28
  TRACK 92 AUDIO
    TITLE "0:"
    INDEX 01 02:03:61
  TRACK 93 AUDIO
    TITLE "18:cjc019_7753"
    INDEX 01 02:04:37
  TRACK 94 AUDIO
    TITLE "0:"
    INDEX 01 02:06:59
  TRACK 95 AUDIO
    TITLE "17:cjc019_7754"
    INDEX 01 02:07:45
  TRACK 96 AUDIO
    TITLE "0:"
    INDEX 01 02:09:03
